<svg width="52" height="72" viewBox="0 0 52 72" fill="none" xmlns="http://www.w3.org/2000/svg">
<path d="M0.0637885 19.3684C0.595055 13.3437 3.81342 7.72391 9.81041 4.03878C12.1164 2.62082 14.626 1.60939 17.2993 0.933463C31.5303 -2.66815 50.4957 4.29243 51.5685 19.392C52.1843 28.0572 46.4115 34.1009 42.3411 41.3024C41.0165 43.6468 39.9316 46.1062 39.1071 48.6349C38.3189 51.0532 38.1706 53.7568 37.1047 56.0838C36.1337 58.2029 33.8242 58.4833 31.5751 58.4613C28.2084 58.4282 24.84 58.5259 21.4835 58.7528C18.6118 58.9481 16.0092 59.4349 13.4531 57.8783C8.75654 55.0235 9.79143 49.9094 8.67724 45.5547C7.61133 41.3844 5.17946 37.693 3.42186 33.7543C1.44188 29.313 -0.365645 24.2304 0.0637885 19.3684ZM34.7607 53.4054C34.8436 53.2684 34.9349 53.1676 34.9678 53.0526C35.1247 52.5169 35.2833 51.9812 35.4075 51.4393C35.9853 48.9248 36.7511 46.4607 37.7998 44.0738C40.5525 37.808 46.1235 33.1777 48.0397 26.4266C49.9404 19.7307 48.069 13.0065 42.3721 8.37141C35.0746 2.43652 23.4946 1.19653 14.688 4.85958C9.4068 7.05582 5.14835 11.2955 3.41155 16.3733C1.71271 21.3377 2.9666 26.5716 4.98108 31.2886C6.89208 35.763 10.3433 39.9775 11.3799 44.7008C11.7783 46.5174 12.094 48.3497 12.4441 50.1741C12.5476 50.7129 12.6424 51.2518 12.7546 51.789C12.8701 52.3452 13.2806 52.5105 13.805 52.2207C13.917 52.1593 14.0222 52.0852 14.1206 52.008C14.8294 51.4518 15.6039 50.9902 16.4507 50.6311C17.9271 50.004 19.1155 50.2608 20.6385 50.1994C21.4973 50.1647 22.0717 49.7392 22.439 49.0461C23.1945 47.6203 22.9065 45.8825 22.9876 44.3558C23.1221 41.846 23.3946 38.799 20.7574 37.2298C19.745 36.6264 18.5256 36.4531 17.382 36.1569C15.6832 35.7157 13.9395 35.0541 12.5252 34.0694C11.4679 33.3336 10.4985 32.5175 9.80694 31.4635C9.07565 30.348 9.01013 29.2169 9.77245 28.0935C10.3002 27.3168 11.104 26.8536 12.0336 26.57C15.3883 25.5443 19.3294 26.4235 22.0199 28.4527C23.329 29.439 23.7481 30.6348 24.3587 32.0811C24.9452 33.4706 25.2849 34.9296 25.5074 36.4058C25.5195 36.4798 25.554 36.5524 25.5798 36.6248C25.6109 36.6248 25.6402 36.6248 25.6713 36.6248C25.7351 36.398 25.8196 36.1743 25.861 35.9442C26.3923 33.0169 27.9963 31.005 31.1854 30.1244C32.8066 29.6769 34.6486 29.4484 36.3302 29.6957C38.1171 29.9589 39.954 30.9372 40.3145 32.6672C40.8284 35.136 38.1154 36.2672 35.8353 36.2609C33.2913 36.253 29.8469 35.5771 27.8944 37.5291C27.2132 38.2114 26.8096 39.0858 26.4853 39.9602C25.723 42.0225 25.0762 44.2707 25.2211 46.4654C25.3367 48.2142 26.2129 49.5534 28.0531 50.1552C29.0328 50.475 30.0763 50.5065 31.0422 50.8705C32.2736 51.3352 33.3395 52.0931 34.271 52.9502C34.4244 53.0872 34.571 53.229 34.7607 53.4054Z" fill="white"/>
<path d="M35.0798 61.7194C35.0263 62.0061 34.9901 62.2944 34.9194 62.5764C34.7487 63.2539 34.2813 63.7108 33.5534 63.8763C32.7755 64.0526 31.9822 64.1977 31.187 64.2795C28.324 64.571 25.4505 64.7806 22.5719 64.916C20.1175 65.0311 16.9751 65.5951 14.6811 64.5742C13.2702 63.9471 13.0478 62.693 13.6135 61.5209C14.2913 60.1139 16.211 59.9281 17.6787 59.8635C21.5491 59.6932 25.4194 59.5263 29.2915 59.3719C30.1608 59.3372 31.0335 59.2631 31.9011 59.2868C32.4616 59.3026 33.0429 59.4003 33.5723 59.5704C34.69 59.9327 35.1401 60.6338 35.0798 61.7194Z" fill="white"/>
<path d="M14.0257 67.75C14.1085 66.8918 14.6483 66.4837 15.3711 66.2222C17.6736 65.3903 20.9179 65.7952 23.3618 65.7101C25.1263 65.6487 26.8907 65.5873 28.6569 65.5258C30.235 65.4707 32.0942 65.1461 33.6276 65.5935C34.3175 65.7952 34.6349 66.1576 34.69 66.7704C34.7159 67.0524 34.5779 67.2715 34.3917 67.465C33.7173 68.1696 32.8549 68.5536 31.8425 68.6122C31.4009 68.6375 30.9508 68.5536 30.5041 68.5195C30.4109 68.5116 30.316 68.5084 30.2247 68.4926C29.6831 68.4039 29.3226 68.5457 28.9966 69.0096C28.2618 70.049 27.2633 70.8304 25.9007 71.1233C24.426 71.4416 23.0531 71.1376 21.7785 70.4536C21.0921 70.0855 20.623 69.3619 19.7898 69.2787C19.3639 69.236 18.9361 69.3072 18.5119 69.3492C17.2752 69.4743 15.5573 69.5004 14.5328 68.7444C14.1517 68.4673 13.9878 68.1031 14.0257 67.75Z" fill="white"/>
</svg>
